{
	"asset":{
		"version":"2.0",
		"generator":"Maxon Cinema 4D 2024.3.2 (#200000219)"
	},
	"scenes":[{
		"nodes":[0]
	}],
	"nodes":[{
		"name":"Campfire",
		"mesh":0
	}],
	"meshes":[{
		"name":"Campfire",
		"primitives":[{
			"attributes":{
				"POSITION":1,
				"NORMAL":2,
				"TEXCOORD_0":3
			},
			"indices":0
		}]
	}],
	"accessors":[{
		"bufferView":0,
		"type":"SCALAR",
		"componentType":5123,
		"count":8838,
		"byteOffset":0,
		"min":[0],
		"max":[8837]
	},
	{
		"bufferView":1,
		"type":"VEC3",
		"componentType":5126,
		"count":8838,
		"byteOffset":0,
		"min":[-2.797086477279663,
		-0.188594251871109,
		-2.672708511352539],
		"max":[2.7884645462036135,
		3.237791061401367,
		2.688260078430176]
	},
	{
		"bufferView":1,
		"type":"VEC3",
		"componentType":5126,
		"count":8838,
		"byteOffset":12,
		"min":[-0.9989747405052185,
		-0.9998660683631897,
		-0.9973576664924622],
		"max":[0.9993823766708374,
		0.9996272921562195,
		0.9977979063987732]
	},
	{
		"bufferView":1,
		"type":"VEC2",
		"componentType":5126,
		"count":8838,
		"byteOffset":24,
		"min":[0.009999999776482582,
		0.009999999776482582],
		"max":[0.9900000095367432,
		0.9859169721603394]
	}],
	"bufferViews":[{
		"buffer":0,
		"byteOffset":0,
		"byteLength":17676,
		"target":34963
	},
	{
		"buffer":0,
		"byteOffset":17676,
		"byteLength":282816,
		"target":34962,
		"byteStride":32
	}],
	"buffers":[{
		"uri":"data:application/octet-stream;base64,",
		"byteLength":300492
	}]
}