{
  "accessors": [
    {
      "bufferView": 2,
      "componentType": 5126,
      "count": 7749,
      "max": [
        91.20603942871094,
        74.31884002685547,
        52.75377655029297
      ],
      "min": [
        -91.20603942871094,
        -74.31884002685547,
        -52.75377655029297
      ],
      "type": "VEC3"
    },
    {
      "bufferView": 2,
      "byteOffset": 92988,
      "componentType": 5126,
      "count": 7749,
      "max": [
        0.9996635913848877,
        0.9999841451644897,
        1.0
      ],
      "min": [
        -0.9996635913848877,
        -0.9999842047691345,
        -0.9999998807907104
      ],
      "type": "VEC3"
    },
    {
      "bufferView": 3,
      "componentType": 5126,
      "count": 7749,
      "max": [
        0.999955952167511,
        0.999906063079834,
        0.9999999403953552,
        1.0
      ],
      "min": [
        -0.999955952167511,
        -0.9999104738235474,
        -0.9999953508377075,
        1.0
      ],
      "type": "VEC4"
    },
    {
      "bufferView": 1,
      "componentType": 5126,
      "count": 7749,
      "max": [
        1.0,
        0.9879065155982971
      ],
      "min": [
        5.551115123125783e-17,
        0.0
      ],
      "type": "VEC2"
    },
    {
      "bufferView": 0,
      "componentType": 5125,
      "count": 14280,
      "type": "SCALAR"
    }
  ],
  "asset": {
    "extras": {
      "author": "William Chang (https://sketchfab.com/williamch15)",
      "license": "CC-BY-4.0 (http://creativecommons.org/licenses/by/4.0/)",
      "source": "https://sketchfab.com/3d-models/stylized-wagon-ac8ed1a9a678402db80aa98f4aef0997",
      "title": "Stylized Wagon"
    },
    "generator": "Sketchfab-12.67.0",
    "version": "2.0"
  },
  "bufferViews": [
    {
      "buffer": 0,
      "byteLength": 57120,
      "name": "floatBufferViews",
      "target": 34963
    },
    {
      "buffer": 0,
      "byteLength": 61992,
      "byteOffset": 57120,
      "byteStride": 8,
      "name": "floatBufferViews",
      "target": 34962
    },
    {
      "buffer": 0,
      "byteLength": 185976,
      "byteOffset": 119112,
      "byteStride": 12,
      "name": "floatBufferViews",
      "target": 34962
    },
    {
      "buffer": 0,
      "byteLength": 123984,
      "byteOffset": 305088,
      "byteStride": 16,
      "name": "floatBufferViews",
      "target": 34962
    }
  ],
  "buffers": [
    {
      "byteLength": 429072,
      "uri": "scene.bin"
    }
  ],
  "images": [
    {
      "uri": "textures/lambert24_baseColor.jpeg"
    },
    {
      "uri": "textures/lambert24_metallicRoughness.png"
    },
    {
      "uri": "textures/lambert24_normal.png"
    }
  ],
  "materials": [
    {
      "doubleSided": true,
      "name": "lambert24",
      "normalTexture": {
        "index": 2,
        "scale": 0.4529344512
      },
      "occlusionTexture": {
        "index": 1
      },
      "pbrMetallicRoughness": {
        "baseColorTexture": {
          "index": 0
        },
        "metallicRoughnessTexture": {
          "index": 1
        }
      }
    }
  ],
  "meshes": [
    {
      "name": "Wagon_lambert24_0",
      "primitives": [
        {
          "attributes": {
            "NORMAL": 1,
            "POSITION": 0,
            "TANGENT": 2,
            "TEXCOORD_0": 3
          },
          "indices": 4,
          "material": 0,
          "mode": 4
        }
      ]
    }
  ],
  "nodes": [
    {
      "children": [
        1
      ],
      "matrix": [
        1.0,
        0.0,
        0.0,
        0.0,
        0.0,
        2.220446049250313e-16,
        -1.0,
        0.0,
        0.0,
        1.0,
        2.220446049250313e-16,
        0.0,
        0.0,
        0.0,
        0.0,
        1.0
      ],
      "name": "Sketchfab_model"
    },
    {
      "children": [
        2
      ],
      "matrix": [
        1.0,
        0.0,
        0.0,
        0.0,
        0.0,
        0.0,
        1.0,
        0.0,
        0.0,
        -1.0,
        0.0,
        0.0,
        0.0,
        0.0,
        0.0,
        1.0
      ],
      "name": "75ed4d4e2ee547acaaf078708b816817.fbx"
    },
    {
      "children": [
        3
      ],
      "name": "RootNode"
    },
    {
      "children": [
        4
      ],
      "name": "Wagon"
    },
    {
      "mesh": 0,
      "name": "Wagon_lambert24_0"
    }
  ],
  "samplers": [
    {
      "magFilter": 9729,
      "minFilter": 9987,
      "wrapS": 10497,
      "wrapT": 10497
    }
  ],
  "scene": 0,
  "scenes": [
    {
      "name": "Sketchfab_Scene",
      "nodes": [
        0
      ]
    }
  ],
  "textures": [
    {
      "sampler": 0,
      "source": 0
    },
    {
      "sampler": 0,
      "source": 1
    },
    {
      "sampler": 0,
      "source": 2
    }
  ]
}
