# WaveFront *.obj file (generated by Cinema 4D)

mtllib ./Cottage_1_Collision.mtl

v -8.227700 0.081067 18.560458
v -13.038107 1.292431 4.639893
v -5.067287 1.292431 16.201360
v 3.753906 6.262107 -3.241858
v -3.196155 1.292431 14.094861
v -5.067287 1.292431 11.687768
v -3.352824 0.081067 9.335845
v -5.067287 0.081067 9.335845
v -3.352824 1.292431 11.687768
v -11.568266 0.081067 18.560458
v -11.581229 1.292431 16.201360
v -8.224016 1.292431 16.201360
v -5.195248 6.262107 4.639811
v -5.067287 1.292431 16.201360
v -13.166068 1.292431 16.201360
v -13.166068 1.292431 11.687768
v 2.133584 1.292431 -3.370452
v -0.478637 1.292431 -3.370452
v -5.195248 1.292431 11.559174
v -5.195248 1.292431 4.639811
v -13.038107 1.292431 -3.241858
v -13.038107 1.292431 11.559174
v 3.753906 1.292431 4.639811
v 3.753906 1.292431 -3.241858
v 2.133584 1.292431 -3.241858
v -0.480526 1.292431 -3.241886
v -5.195248 1.292431 11.559174
v 3.753906 6.262107 4.639811
v -3.196155 1.292431 11.687768
v -5.067287 1.292431 11.687768
v -13.038107 6.278067 11.559174
v -4.725366 1.292431 16.201360
v -5.195248 6.278067 11.559174
v -13.038107 1.292431 11.559174
v -7.861644 4.612857 11.559174
v -10.424850 4.612857 11.559174
v -5.195248 1.292431 11.559174
v -13.038107 6.278067 11.559174
v -7.861644 1.292431 11.559174
v -10.424850 1.292431 11.559174
v -5.195248 6.262107 4.639811
v -5.195248 6.278067 11.559174
v -13.038107 6.262107 -3.241858
v -5.195248 1.292431 4.639811
v -13.038107 1.292431 -3.241858
v -13.038107 1.292431 11.559174
v 3.753906 1.292431 4.639811
v 3.753906 1.292431 -3.241858
v 1.875448 1.292431 -4.505823
v 1.875448 0.081067 -6.490385
v -0.192345 0.081067 -6.490385
v 2.133584 1.292431 -3.370452
v -0.478637 1.292431 -3.370452
v -0.192345 1.292431 -4.505823
v -0.478637 1.292432 -4.505823
v 2.133584 1.292432 -4.505823
v -13.166068 1.292431 11.687768
v -12.436045 5.184540 11.829553
v -3.196155 0.081067 11.687768
v -13.166068 1.292431 16.201360
v -3.196155 1.292431 11.687768
v -4.725366 1.292431 16.201360
v -3.196155 1.292431 14.094861
v -13.166068 0.081067 11.687768
v -3.349010 0.081067 11.687768
v -3.352370 1.292431 11.687768
v -3.349010 0.081067 9.335615
v -3.352370 1.292431 9.335615
v -3.196155 1.292431 9.335615
v -3.196155 0.081067 9.335615
v -12.436045 5.661099 11.829553
v -6.422357 0.081067 16.201360
v -7.861644 0.081067 16.201360
v -9.236795 0.081067 16.201360
v -11.058086 0.081067 16.201360
v -11.791043 0.081067 16.201360
v -13.166068 0.081067 16.201360
v -3.196155 0.081067 11.687768
v -4.725366 0.081067 16.201360
v -3.196155 0.081067 14.094861
v -3.196155 1.292431 11.687768
v -13.166068 6.278067 -3.370452
v -13.166068 6.278067 11.687768
v 3.881867 6.278067 4.768405
v 3.881867 6.278067 -3.370452
v -7.861644 4.612857 11.687768
v -10.424850 4.612857 11.687768
v -10.424850 1.292431 11.687768
v 2.133584 5.181166 -3.370452
v -0.478637 5.181166 -3.370452
v -7.861644 1.292431 11.687768
v -0.478637 0.081067 -3.370452
v -13.166068 1.292431 11.687768
v -5.067287 0.081067 4.768405
v -13.166068 0.081067 -3.370452
v -13.166068 0.081067 11.687768
v -5.067287 0.081067 11.687768
v 3.881867 0.081067 4.768405
v 3.881867 0.081067 -3.370452
v 2.133584 0.081067 -3.370452
v -5.067287 6.309987 4.768405
v -5.067287 6.309987 11.687768
v 3.881867 6.309987 4.768405
v -5.067287 1.292431 11.687768
v -11.667130 1.292431 12.849136
v -11.667130 1.292432 13.435134
v -12.250242 1.292431 12.849136
v -12.250242 1.292431 13.435134
v -6.581095 1.292432 12.849136
v -6.581095 1.292431 13.435134
v -6.581095 1.292431 12.849136
v -5.997983 1.292430 13.435134
v -12.436045 5.184540 11.687768
v -5.797310 5.184540 11.687768
v -12.436045 5.661099 11.687768
v -5.797310 5.661099 11.687768
v -12.436045 5.184540 13.698304
v -5.797310 5.184540 13.698304
v -12.436045 5.661099 13.698304
v -5.797310 5.661099 13.698304
v -11.667130 5.184540 13.435134
v -11.667130 5.184539 12.849136
v -12.250242 5.184539 12.849136
v -12.250242 5.184539 13.435134
v -5.997983 5.184539 13.435134
v -5.997983 5.184540 12.849136
v -6.581095 5.184540 12.849136
v -6.581095 5.184540 13.435134
v -5.997983 1.292431 13.435134
v -5.997983 1.292432 12.849136
v -12.436045 5.661099 11.721718
v -12.436045 5.184540 11.721718
v 2.133584 1.292431 -3.241858
v -0.478637 1.292431 -3.241858
v 2.133583 5.181166 -3.241858
v -0.478637 5.181166 -3.241858
v -7.850061 6.299019 11.687768
v -7.865089 6.278067 11.559174
v -10.418869 6.278067 11.559174
v -10.426849 6.288863 11.687768
v -0.480833 6.262107 -3.241858
v 2.138676 6.262107 -3.241858
v 2.144241 6.278067 -3.370452
v -0.496195 6.278067 -3.370452
v -9.789102 1.301122 13.520393
v -9.789102 4.524917 13.520393
v -10.224009 1.301122 11.376012
v -10.224009 4.524917 11.376013
v -9.723236 1.301122 13.506902
v -9.723236 4.524917 13.506902
v -10.158143 1.301122 11.362522
v -10.158143 4.524917 11.362522
# 152 vertices

vn -0.000000 1.000000 0.000000
vn -0.000000 1.000000 0.000000
vn -0.000000 1.000000 0.000000
vn -0.000000 1.000000 -0.000000
vn 0.000000 1.000000 0.000000
vn 0.000000 0.000000 -1.000000
vn 0.000000 1.000000 0.000000
vn 0.000000 -0.000000 1.000000
vn -0.000000 0.000000 1.000000
vn 0.000000 -0.000000 1.000000
vn -0.000000 -0.000000 1.000000
vn 0.000000 0.000000 1.000000
vn 0.000000 -0.000000 1.000000
vn 0.000000 0.000000 1.000000
vn 0.000000 1.000000 0.000000
vn 0.000003 -1.000000 -0.000001
vn 0.000000 -1.000000 0.000000
vn -0.000002 -1.000000 0.000000
vn -0.000000 -1.000000 -0.000002
vn 0.000000 -1.000000 0.000000
vn 0.000000 -1.000000 0.000001
vn -0.000002 -1.000000 0.000004
vn 0.000002 -1.000000 0.000002
vn 0.000000 -1.000000 -0.000000
vn 0.000000 -1.000000 -0.000000
vn -0.000000 0.000000 1.000000
vn -0.000000 -0.000000 1.000000
vn 0.000000 -0.000000 1.000000
vn 0.000000 0.000000 1.000000
vn -0.000000 0.889010 -0.457887
vn 1.000000 0.000000 0.000000
vn -0.000000 1.000000 -0.000000
vn -1.000000 0.000000 0.000000
vn -0.000000 0.889577 0.456785
vn 0.000000 1.000000 0.000001
vn 0.000000 0.853554 -0.521004
vn 0.809245 0.000000 0.587471
vn 0.000000 -0.000000 -1.000000
vn 1.000000 0.000000 0.000000
vn -0.999996 -0.002773 -0.000000
vn 1.000000 0.000000 0.000000
vn -0.000000 0.000000 -1.000000
vn 1.000000 0.000000 -0.000000
vn -1.000000 0.000000 0.000000
vn -0.000000 0.000000 1.000000
vn -0.000000 0.000000 1.000000
vn -0.000000 -0.000000 1.000000
vn -1.000000 -0.000000 0.000000
vn 1.000000 0.000000 -0.000000
vn -0.000000 1.000000 0.000000
vn -0.980047 0.000000 0.198766
vn 0.980047 -0.000000 -0.198766
# 52 normals

o Collisions
usemtl default
f 3//3 32//3 5//1 29//2 9//2 6//1
f 24//4 21//5 2//5 20//4 23//4
f 40//6 34//6 38//6 139//6 36//6
f 16//7 15//7 11//7 12//7 14//7 30//7
f 75//13 74//12 73//9 72//11 79//10 62//10 60//9 77//8 76//8
f 85//6 99//6 100//6 89//6 143//6
f 83//14 93//14 88//14 87//14 140//14
f 120//15 116//15 115//15 131//15 71//15 119//15
f 125//16 126//16 114//16 118//16
f 114//17 132//17 113//17
f 114//17 58//17 132//17
f 58//18 123//18 124//18 117//18
f 121//19 128//19 118//19 117//19
f 114//20 126//20 127//20
f 128//21 121//21 122//21 127//21
f 118//22 128//22 125//22
f 121//23 117//23 124//23
f 58//24 122//24 123//24
f 127//25 122//25 58//25 114//25
f 43//26 45//27 134//27 136//27 141//26
f 39//6 35//6 138//6 33//6 37//6
f 137//14 86//14 91//14 104//14 102//14
f 142//29 135//29 133//28 48//28 4//28
f 143//6 89//6 90//6 144//6
f 141//29 136//29 135//29 142//29
f 9//30 7//30 8//30 6//30
f 45//31 43//31 31//31 46//31
f 22//32 27//32 20//32 2//32
f 26//15 25//15 17//15 18//15
f 44//33 19//33 42//33 41//33
f 44//6 13//6 28//6 47//6
f 48//33 47//33 28//33 4//33
f 16//15 30//15 27//15 22//15
f 11//34 10//34 1//34 12//34
f 52//35 56//35 55//35 53//35
f 49//36 50//36 51//36 54//36
f 79//37 80//37 63//37 62//37
f 107//38 123//38 122//38 105//38
f 64//33 77//33 60//33 57//33
f 80//39 78//39 61//39 63//39
f 67//40 65//40 66//40 68//40
f 69//41 81//41 59//41 70//41
f 70//42 67//42 68//42 69//42
f 95//33 96//33 83//33 82//33
f 101//43 102//43 97//43 94//43
f 101//14 94//14 98//14 103//14
f 85//31 84//31 98//31 99//31
f 129//31 130//31 126//31 125//31
f 118//31 114//31 116//31 120//31
f 127//44 111//44 110//44 128//44
f 58//33 117//33 119//33 71//33
f 130//6 109//6 127//6 126//6
f 118//45 120//45 119//45 117//45
f 71//33 131//33 132//33 58//33
f 106//46 121//46 124//46 108//46
f 112//47 125//47 128//47 110//47
f 108//48 124//48 123//48 107//48
f 105//49 122//49 121//49 106//49
f 68//50 66//50 81//50 69//50
f 140//14 87//14 86//14 137//14
f 36//6 139//6 138//6 35//6
f 144//6 90//6 92//6 95//6 82//6
f 147//51 145//51 146//51 148//51
f 150//52 149//52 151//52 152//52

