{
	"samplers":[{
		"magFilter":9729,
		"minFilter":9729,
		"wrapS":10497,
		"wrapT":10497
	}],
	"asset":{
		"version":"2.0",
		"generator":"Maxon Cinema 4D 2024.1.0 (#200000219)"
	},
	"images":[{
		"uri":"data:image/png;base64,"
	}],
	"scenes":[{
		"nodes":[0,
		1]
	}],
	"nodes":[{
		"name":"Ranch",
		"translation":[4.127302646636963,
		1.353704810142517,
		-6.696399688720703],
		"rotation":[-0.5,
		-0.5,
		0.5,
		-0.5],
		"scale":[1.0,
		1.0,
		1.0],
		"children":[2,
		3,
		4]
	},
	{
		"name":"House",
		"translation":[-4.127921104431152,
		0.020631663501262666,
		6.694515705108643],
		"rotation":[0.0,
		0.0,
		0.0,
		-1.0],
		"scale":[1.0,
		1.0,
		1.0],
		"children":[5,
		6,
		7]
	},
	{
		"name":"Ranch Fence",
		"mesh":0
	},
	{
		"name":"Fence Door",
		"mesh":1
	},
	{
		"name":"Chicken Coop",
		"mesh":2,
		"translation":[-7.825173377990723,
		23.20902442932129,
		1.3118733167648316],
		"rotation":[0.5986873507499695,
		-0.37626245617866518,
		0.37626245617866518,
		-0.5986873507499695],
		"scale":[1.0,
		1.0,
		1.0],
		"children":[8,
		9,
		10]
	},
	{
		"name":"Stairs",
		"translation":[0.0617203451693058,
		-0.0038052909076213838,
		0.9874210357666016],
		"rotation":[0.0,
		0.0,
		0.0,
		-1.0],
		"scale":[1.0,
		1.0,
		1.0],
		"children":[11,
		12,
		13]
	},
	{
		"name":"Front Door",
		"mesh":3,
		"translation":[-5.73380708694458,
		1.6691845655441285,
		4.396698951721191],
		"rotation":[0.0,
		-0.6325701475143433,
		0.0,
		0.7745030522346497],
		"scale":[1.0,
		1.0,
		1.0]
	},
	{
		"name":"Main House",
		"translation":[-2.959484100341797,
		0.8403002023696899,
		0.7172178030014038],
		"rotation":[0.0,
		0.0,
		0.0,
		-1.0],
		"scale":[1.0,
		1.0,
		1.0],
		"children":[14,
		15]
	},
	{
		"name":"Chicken Coop Window",
		"mesh":4,
		"translation":[-2.5660479068756105,
		2.4489667415618898,
		-1.7760183811187745],
		"rotation":[0.0,
		0.0,
		0.7071067690849304,
		0.7071067690849304],
		"scale":[1.0,
		1.0,
		1.0]
	},
	{
		"name":"Chicken Coop Window 2",
		"mesh":5,
		"translation":[1.6354221105575562,
		2.4489667415618898,
		1.2952561378479005],
		"rotation":[0.7071067690849304,
		0.7071067690849304,
		4.329780301713277e-17,
		4.329780301713277e-17],
		"scale":[1.0,
		1.0,
		1.0]
	},
	{
		"name":"Chicken Coop Floor",
		"mesh":6
	},
	{
		"name":"Stairs.2",
		"mesh":7,
		"translation":[-5.4686079025268559,
		-5.417888487225706e-16,
		8.173290252685547],
		"rotation":[0.0,
		-1.2246468525851679e-16,
		0.0,
		-1.0],
		"scale":[1.0,
		1.0,
		1.0]
	},
	{
		"name":"Stairs.1",
		"mesh":8,
		"translation":[0.2180713713169098,
		-5.417888487225706e-16,
		3.724679708480835],
		"rotation":[0.0,
		-1.0,
		0.0,
		-6.123234262925839e-17],
		"scale":[1.0,
		1.0,
		1.0]
	},
	{
		"name":"Stairs",
		"mesh":9,
		"translation":[5.2505364418029789,
		-5.417888487225706e-16,
		-11.897970199584961],
		"rotation":[0.0,
		-1.0,
		0.0,
		-6.123234262925839e-17],
		"scale":[1.0,
		1.0,
		1.0]
	},
	{
		"name":"Main House",
		"mesh":10
	},
	{
		"name":"Main House-Brick Wall 03 - Texture",
		"mesh":11
	}],
	"buffers":[{
		"uri":"data:application/octet-stream;base64,",
		"byteLength":800
	},
	{
		"uri":"data:application/octet-stream;base64,",
		"byteLength":144
	},
	{
		"uri":"data:application/octet-stream;base64,",
		"byteLength":4016
	},
	{
		"uri":"data:application/octet-stream;base64,",
		"byteLength":1944
	},
	{
		"uri":"data:application/octet-stream;base64,",
		"byteLength":168
	},
	{
		"uri":"data:application/octet-stream;base64,",
		"byteLength":168
	},
	{
		"uri":"data:application/octet-stream;base64,",
		"byteLength":204
	},
	{
		"uri":"data:application/octet-stream;base64,",
		"byteLength":8112
	},
	{
		"uri":"data:application/octet-stream;base64,",
		"byteLength":15912
	},
	{
		"uri":"data:application/octet-stream;base64,",
		"byteLength":15912
	},
	{
		"uri":"data:application/octet-stream;base64,",
		"byteLength":106392
	},
	{
		"uri":"data:application/octet-stream;base64,",
		"byteLength":45872
	}],
	"meshes":[{
		"name":"Ranch Fence",
		"primitives":[{
			"attributes":{
				"POSITION":1
			},
			"indices":0
		}]
	},
	{
		"name":"Fence Door",
		"primitives":[{
			"attributes":{
				"POSITION":3
			},
			"indices":2
		}]
	},
	{
		"name":"Chicken Coop",
		"primitives":[{
			"attributes":{
				"POSITION":5
			},
			"indices":4
		}]
	},
	{
		"name":"Front Door",
		"primitives":[{
			"attributes":{
				"POSITION":7
			},
			"indices":6
		}]
	},
	{
		"name":"Chicken Coop Window",
		"primitives":[{
			"attributes":{
				"POSITION":9
			},
			"indices":8
		}]
	},
	{
		"name":"Chicken Coop Window 2",
		"primitives":[{
			"attributes":{
				"POSITION":11
			},
			"indices":10
		}]
	},
	{
		"name":"Chicken Coop Floor",
		"primitives":[{
			"attributes":{
				"POSITION":13
			},
			"indices":12
		}]
	},
	{
		"name":"Stairs.2",
		"primitives":[{
			"attributes":{
				"POSITION":15,
				"NORMAL":16
			},
			"indices":14
		}]
	},
	{
		"name":"Stairs.1",
		"primitives":[{
			"attributes":{
				"POSITION":18,
				"NORMAL":19
			},
			"indices":17
		}]
	},
	{
		"name":"Stairs",
		"primitives":[{
			"attributes":{
				"POSITION":21,
				"NORMAL":22
			},
			"indices":20
		}]
	},
	{
		"name":"Main House",
		"primitives":[{
			"attributes":{
				"POSITION":24,
				"TEXCOORD_0":25
			},
			"indices":23
		}]
	},
	{
		"name":"Main House-Brick Wall 03 - Texture",
		"primitives":[{
			"attributes":{
				"POSITION":27,
				"TEXCOORD_0":28
			},
			"indices":26,
			"material":0
		}]
	}],
	"accessors":[{
		"min":[0],
		"bufferView":0,
		"type":"SCALAR",
		"componentType":5123,
		"count":177,
		"byteOffset":0,
		"max":[36]
	},
	{
		"min":[-41.478431701660159,
		-0.09613431245088577,
		-1.0337939262390137],
		"bufferView":1,
		"type":"VEC3",
		"componentType":5126,
		"count":37,
		"byteOffset":0,
		"max":[3.312441110610962,
		32.95525360107422,
		1.3020271062850953]
	},
	{
		"min":[0],
		"bufferView":2,
		"type":"SCALAR",
		"componentType":5123,
		"count":24,
		"byteOffset":0,
		"max":[7]
	},
	{
		"min":[-21.213491439819337,
		-0.9720029234886169,
		-1.0337939262390137],
		"bufferView":3,
		"type":"VEC3",
		"componentType":5126,
		"count":8,
		"byteOffset":0,
		"max":[-18.65846061706543,
		1.032814860343933,
		1.3020271062850953]
	},
	{
		"min":[0],
		"bufferView":4,
		"type":"SCALAR",
		"componentType":5123,
		"count":1059,
		"byteOffset":0,
		"max":[157]
	},
	{
		"min":[-4.011353492736816,
		-1.6096059099972695e-15,
		-5.566490650177002],
		"bufferView":5,
		"type":"VEC3",
		"componentType":5126,
		"count":158,
		"byteOffset":0,
		"max":[4.011353492736816,
		4.41391134262085,
		3.531287431716919]
	},
	{
		"min":[0],
		"bufferView":6,
		"type":"SCALAR",
		"componentType":5123,
		"count":480,
		"byteOffset":0,
		"max":[81]
	},
	{
		"min":[-0.0005931609775871038,
		-0.40560784935951235,
		-0.10160456597805023],
		"bufferView":7,
		"type":"VEC3",
		"componentType":5126,
		"count":82,
		"byteOffset":0,
		"max":[2.171980619430542,
		2.8584837913513185,
		0.007746751420199871]
	},
	{
		"min":[0],
		"bufferView":8,
		"type":"SCALAR",
		"componentType":5123,
		"count":36,
		"byteOffset":0,
		"max":[7]
	},
	{
		"min":[-0.6384094953536987,
		-3.663558443157272e-14,
		-0.8056233525276184],
		"bufferView":9,
		"type":"VEC3",
		"componentType":5126,
		"count":8,
		"byteOffset":0,
		"max":[-0.21486589312553407,
		0.19796282052993775,
		0.8056233525276184]
	},
	{
		"min":[0],
		"bufferView":10,
		"type":"SCALAR",
		"componentType":5123,
		"count":36,
		"byteOffset":0,
		"max":[7]
	},
	{
		"min":[-0.8090456128120422,
		-0.0008347569382749498,
		-1.336622714996338],
		"bufferView":11,
		"type":"VEC3",
		"componentType":5126,
		"count":8,
		"byteOffset":0,
		"max":[-0.26873818039894106,
		0.153569296002388,
		1.336479663848877]
	},
	{
		"min":[0],
		"bufferView":12,
		"type":"SCALAR",
		"componentType":5123,
		"count":30,
		"byteOffset":0,
		"max":[11]
	},
	{
		"min":[-3.9042160511016847,
		1.291600227355957,
		-3.071274518966675],
		"bufferView":13,
		"type":"VEC3",
		"componentType":5126,
		"count":12,
		"byteOffset":0,
		"max":[4.011353492736816,
		1.291600227355957,
		3.071274518966675]
	},
	{
		"min":[0],
		"bufferView":14,
		"type":"SCALAR",
		"componentType":5123,
		"count":312,
		"byteOffset":0,
		"max":[311]
	},
	{
		"min":[-1.665236473083496,
		8.404017380684832e-16,
		0.020979996770620347],
		"bufferView":15,
		"type":"VEC3",
		"componentType":5126,
		"count":312,
		"byteOffset":0,
		"max":[1.665236473083496,
		1.2604409456253052,
		2.3123972415924074]
	},
	{
		"min":[-1.0,
		-1.0,
		-1.0],
		"bufferView":15,
		"type":"VEC3",
		"componentType":5126,
		"count":312,
		"byteOffset":12,
		"max":[1.0,
		1.0,
		1.0]
	},
	{
		"min":[0],
		"bufferView":16,
		"type":"SCALAR",
		"componentType":5123,
		"count":612,
		"byteOffset":0,
		"max":[611]
	},
	{
		"min":[-0.8483737707138062,
		8.404017380684832e-16,
		-1.615949969391295e-7],
		"bufferView":17,
		"type":"VEC3",
		"componentType":5126,
		"count":612,
		"byteOffset":0,
		"max":[0.8483737707138062,
		1.2604409456253052,
		2.2752575874328615]
	},
	{
		"min":[-1.0,
		-1.0,
		-1.0],
		"bufferView":17,
		"type":"VEC3",
		"componentType":5126,
		"count":612,
		"byteOffset":12,
		"max":[1.0,
		1.0,
		1.0]
	},
	{
		"min":[0],
		"bufferView":18,
		"type":"SCALAR",
		"componentType":5123,
		"count":612,
		"byteOffset":0,
		"max":[611]
	},
	{
		"min":[-1.0261282920837403,
		8.404017380684832e-16,
		-1.615949969391295e-7],
		"bufferView":19,
		"type":"VEC3",
		"componentType":5126,
		"count":612,
		"byteOffset":0,
		"max":[1.0261282920837403,
		1.2927600145339966,
		2.2752575874328615]
	},
	{
		"min":[-1.0,
		-1.0,
		-1.0],
		"bufferView":19,
		"type":"VEC3",
		"componentType":5126,
		"count":612,
		"byteOffset":12,
		"max":[1.0,
		1.0,
		1.0]
	},
	{
		"min":[0],
		"bufferView":20,
		"type":"SCALAR",
		"componentType":5123,
		"count":4836,
		"byteOffset":0,
		"max":[4835]
	},
	{
		"min":[-6.08042049407959,
		-0.8120294809341431,
		-14.271605491638184],
		"bufferView":21,
		"type":"VEC3",
		"componentType":5126,
		"count":4836,
		"byteOffset":0,
		"max":[11.709864616394043,
		10.029014587402344,
		8.467657089233399]
	},
	{
		"min":[1.1102230246251566e-16,
		0.0],
		"bufferView":21,
		"type":"VEC2",
		"componentType":5126,
		"count":4836,
		"byteOffset":12,
		"max":[1.0,
		1.0]
	},
	{
		"min":[0],
		"bufferView":22,
		"type":"SCALAR",
		"componentType":5123,
		"count":2085,
		"byteOffset":0,
		"max":[2084]
	},
	{
		"min":[-5.701996803283691,
		-0.8120294809341431,
		-14.271605491638184],
		"bufferView":23,
		"type":"VEC3",
		"componentType":5126,
		"count":2085,
		"byteOffset":0,
		"max":[11.305876731872559,
		5.462432384490967,
		3.9868438243865969]
	},
	{
		"min":[-6.873620510101318,
		-4.398072242736816],
		"bufferView":23,
		"type":"VEC2",
		"componentType":5126,
		"count":2085,
		"byteOffset":12,
		"max":[7.098723888397217,
		9.549478530883789]
	}],
	"materials":[{
		"pbrMetallicRoughness":{
			"baseColorTexture":{
				"index":0
			},
			"baseColorFactor":[1.0,
			1.0,
			1.0,
			1.0],
			"metallicFactor":0.800000011920929,
			"roughnessFactor":0.4800000071525574
		},
		"emissiveFactor":[0.0,
		0.0,
		0.0],
		"alphaMode":"OPAQUE",
		"name":"Brick Wall 03 - Texture",
		"doubleSided":false
	}],
	"bufferViews":[{
		"buffer":0,
		"byteOffset":0,
		"byteLength":354,
		"target":34963
	},
	{
		"buffer":0,
		"byteOffset":356,
		"byteLength":444,
		"target":34962
	},
	{
		"buffer":1,
		"byteOffset":0,
		"byteLength":48,
		"target":34963
	},
	{
		"buffer":1,
		"byteOffset":48,
		"byteLength":96,
		"target":34962
	},
	{
		"buffer":2,
		"byteOffset":0,
		"byteLength":2118,
		"target":34963
	},
	{
		"buffer":2,
		"byteOffset":2120,
		"byteLength":1896,
		"target":34962
	},
	{
		"buffer":3,
		"byteOffset":0,
		"byteLength":960,
		"target":34963
	},
	{
		"buffer":3,
		"byteOffset":960,
		"byteLength":984,
		"target":34962
	},
	{
		"buffer":4,
		"byteOffset":0,
		"byteLength":72,
		"target":34963
	},
	{
		"buffer":4,
		"byteOffset":72,
		"byteLength":96,
		"target":34962
	},
	{
		"buffer":5,
		"byteOffset":0,
		"byteLength":72,
		"target":34963
	},
	{
		"buffer":5,
		"byteOffset":72,
		"byteLength":96,
		"target":34962
	},
	{
		"buffer":6,
		"byteOffset":0,
		"byteLength":60,
		"target":34963
	},
	{
		"buffer":6,
		"byteOffset":60,
		"byteLength":144,
		"target":34962
	},
	{
		"buffer":7,
		"byteOffset":0,
		"byteLength":624,
		"target":34963
	},
	{
		"buffer":7,
		"byteOffset":624,
		"byteLength":7488,
		"target":34962,
		"byteStride":24
	},
	{
		"buffer":8,
		"byteOffset":0,
		"byteLength":1224,
		"target":34963
	},
	{
		"buffer":8,
		"byteOffset":1224,
		"byteLength":14688,
		"target":34962,
		"byteStride":24
	},
	{
		"buffer":9,
		"byteOffset":0,
		"byteLength":1224,
		"target":34963
	},
	{
		"buffer":9,
		"byteOffset":1224,
		"byteLength":14688,
		"target":34962,
		"byteStride":24
	},
	{
		"buffer":10,
		"byteOffset":0,
		"byteLength":9672,
		"target":34963
	},
	{
		"buffer":10,
		"byteOffset":9672,
		"byteLength":96720,
		"target":34962,
		"byteStride":20
	},
	{
		"buffer":11,
		"byteOffset":0,
		"byteLength":4170,
		"target":34963
	},
	{
		"buffer":11,
		"byteOffset":4172,
		"byteLength":41700,
		"target":34962,
		"byteStride":20
	}],
	"textures":[{
		"sampler":0,
		"source":0
	}]
}