{
	"asset":{
		"version":"2.0",
		"generator":"Maxon Cinema 4D 2024.3.2 (#200000219)"
	},
	"scenes":[{
		"nodes":[0,
		1]
	}],
	"nodes":[{
		"translation":[-4.0848028223718178e-17,
		5.662195682525635,
		0.6670989394187927],
		"name":"Cube",
		"mesh":0,
		"rotation":[0.0,
		-1.0,
		0.0,
		-6.123234262925839e-17],
		"scale":[1.0,
		1.0,
		1.0]
	},
	{
		"translation":[-1.10393488407135,
		0.0,
		0.0],
		"name":"Cloner",
		"rotation":[0.0,
		0.0,
		0.0,
		-1.0],
		"scale":[1.0,
		1.0,
		1.0],
		"children":[2,
		3,
		4,
		5,
		6,
		7,
		8]
	},
	{
		"translation":[-0.03995610773563385,
		1.6842148303985596,
		0.2002062201499939],
		"name":"Cube.1 0",
		"mesh":1,
		"rotation":[0.0,
		0.0,
		0.0,
		-1.0],
		"scale":[1.0,
		1.0,
		1.0]
	},
	{
		"translation":[0.34004390239715578,
		1.6842148303985596,
		0.2002062201499939],
		"name":"Cube.1 1",
		"mesh":2,
		"rotation":[0.0,
		0.0,
		0.005393719766288996,
		0.9999854564666748],
		"scale":[1.0,
		1.0,
		1.0]
	},
	{
		"translation":[0.7367976307868958,
		1.6842148303985596,
		0.2002062201499939],
		"name":"Cube.1 2",
		"mesh":3,
		"rotation":[0.0,
		0.0,
		0.0044662379659712318,
		-0.9999900460243225],
		"scale":[1.0,
		1.0,
		1.0]
	},
	{
		"translation":[1.1000438928604127,
		1.6842148303985596,
		0.2002062201499939],
		"name":"Cube.1 3",
		"mesh":4,
		"rotation":[0.0,
		0.0,
		0.0044334810227155689,
		-0.9999901652336121],
		"scale":[1.0,
		1.0,
		1.0]
	},
	{
		"translation":[1.480043888092041,
		1.6842148303985596,
		0.2002062201499939],
		"name":"Cube.1 4",
		"mesh":5,
		"rotation":[0.0,
		0.0,
		0.0,
		-1.0],
		"scale":[1.0,
		1.0,
		1.0]
	},
	{
		"translation":[1.8600438833236695,
		1.6842148303985596,
		0.2002062201499939],
		"name":"Cube.1 5",
		"mesh":6,
		"rotation":[0.0,
		0.0,
		0.008200403302907944,
		0.9999663829803467],
		"scale":[1.0,
		1.0,
		1.0]
	},
	{
		"translation":[2.240043878555298,
		1.6842148303985596,
		0.2002062201499939],
		"name":"Cube.1 6",
		"mesh":7,
		"rotation":[0.0,
		0.0,
		0.0,
		-1.0],
		"scale":[1.0,
		1.0,
		1.0]
	}],
	"meshes":[{
		"name":"Cube",
		"primitives":[{
			"attributes":{
				"POSITION":1,
				"NORMAL":2,
				"TEXCOORD_0":3
			},
			"indices":0
		}]
	},
	{
		"name":"Cube.1 0",
		"primitives":[{
			"attributes":{
				"POSITION":5,
				"NORMAL":6,
				"TEXCOORD_0":7
			},
			"indices":4
		}]
	},
	{
		"name":"Cube.1 1",
		"primitives":[{
			"attributes":{
				"POSITION":9,
				"NORMAL":10,
				"TEXCOORD_0":11
			},
			"indices":8
		}]
	},
	{
		"name":"Cube.1 2",
		"primitives":[{
			"attributes":{
				"POSITION":13,
				"NORMAL":14,
				"TEXCOORD_0":15
			},
			"indices":12
		}]
	},
	{
		"name":"Cube.1 3",
		"primitives":[{
			"attributes":{
				"POSITION":17,
				"NORMAL":18,
				"TEXCOORD_0":19
			},
			"indices":16
		}]
	},
	{
		"name":"Cube.1 4",
		"primitives":[{
			"attributes":{
				"POSITION":21,
				"NORMAL":22,
				"TEXCOORD_0":23
			},
			"indices":20
		}]
	},
	{
		"name":"Cube.1 5",
		"primitives":[{
			"attributes":{
				"POSITION":25,
				"NORMAL":26,
				"TEXCOORD_0":27
			},
			"indices":24
		}]
	},
	{
		"name":"Cube.1 6",
		"primitives":[{
			"attributes":{
				"POSITION":29,
				"NORMAL":30,
				"TEXCOORD_0":31
			},
			"indices":28
		}]
	}],
	"accessors":[{
		"min":[0],
		"bufferView":0,
		"type":"SCALAR",
		"componentType":5123,
		"count":318,
		"byteOffset":0,
		"max":[317]
	},
	{
		"min":[-10.896394729614258,
		-6.472440719604492,
		0.39635300636291506],
		"bufferView":1,
		"type":"VEC3",
		"componentType":5126,
		"count":318,
		"byteOffset":0,
		"max":[12.880393028259278,
		10.062067031860352,
		7.696112155914307]
	},
	{
		"min":[-0.9968473315238953,
		-1.0,
		-0.17459642887115479],
		"bufferView":1,
		"type":"VEC3",
		"componentType":5126,
		"count":318,
		"byteOffset":12,
		"max":[0.9968473315238953,
		0.9954743385314941,
		1.0]
	},
	{
		"min":[0.0,
		0.0],
		"bufferView":1,
		"type":"VEC2",
		"componentType":5126,
		"count":318,
		"byteOffset":24,
		"max":[1.0,
		1.0]
	},
	{
		"min":[0],
		"bufferView":2,
		"type":"SCALAR",
		"componentType":5123,
		"count":36,
		"byteOffset":0,
		"max":[35]
	},
	{
		"min":[-0.15000000596046449,
		-1.7137552499771119,
		-0.044444452971220019],
		"bufferView":3,
		"type":"VEC3",
		"componentType":5126,
		"count":36,
		"byteOffset":0,
		"max":[0.15000000596046449,
		1.7137552499771119,
		0.044444452971220019]
	},
	{
		"min":[-1.0,
		-1.0,
		-1.0],
		"bufferView":3,
		"type":"VEC3",
		"componentType":5126,
		"count":36,
		"byteOffset":12,
		"max":[1.0,
		1.0,
		1.0]
	},
	{
		"min":[0.0,
		0.0],
		"bufferView":3,
		"type":"VEC2",
		"componentType":5126,
		"count":36,
		"byteOffset":24,
		"max":[1.0,
		1.0]
	},
	{
		"min":[0],
		"bufferView":4,
		"type":"SCALAR",
		"componentType":5123,
		"count":36,
		"byteOffset":0,
		"max":[35]
	},
	{
		"min":[-0.15000000596046449,
		-1.7137552499771119,
		-0.044444452971220019],
		"bufferView":5,
		"type":"VEC3",
		"componentType":5126,
		"count":36,
		"byteOffset":0,
		"max":[0.15000000596046449,
		1.7137552499771119,
		0.044444452971220019]
	},
	{
		"min":[-1.0,
		-1.0,
		-1.0],
		"bufferView":5,
		"type":"VEC3",
		"componentType":5126,
		"count":36,
		"byteOffset":12,
		"max":[1.0,
		1.0,
		1.0]
	},
	{
		"min":[0.0,
		0.0],
		"bufferView":5,
		"type":"VEC2",
		"componentType":5126,
		"count":36,
		"byteOffset":24,
		"max":[1.0,
		1.0]
	},
	{
		"min":[0],
		"bufferView":6,
		"type":"SCALAR",
		"componentType":5123,
		"count":36,
		"byteOffset":0,
		"max":[35]
	},
	{
		"min":[-0.15000000596046449,
		-1.7137552499771119,
		-0.044444452971220019],
		"bufferView":7,
		"type":"VEC3",
		"componentType":5126,
		"count":36,
		"byteOffset":0,
		"max":[0.15000000596046449,
		1.7137552499771119,
		0.044444452971220019]
	},
	{
		"min":[-1.0,
		-1.0,
		-1.0],
		"bufferView":7,
		"type":"VEC3",
		"componentType":5126,
		"count":36,
		"byteOffset":12,
		"max":[1.0,
		1.0,
		1.0]
	},
	{
		"min":[0.0,
		0.0],
		"bufferView":7,
		"type":"VEC2",
		"componentType":5126,
		"count":36,
		"byteOffset":24,
		"max":[1.0,
		1.0]
	},
	{
		"min":[0],
		"bufferView":8,
		"type":"SCALAR",
		"componentType":5123,
		"count":36,
		"byteOffset":0,
		"max":[35]
	},
	{
		"min":[-0.15000000596046449,
		-1.7137552499771119,
		-0.044444452971220019],
		"bufferView":9,
		"type":"VEC3",
		"componentType":5126,
		"count":36,
		"byteOffset":0,
		"max":[0.15000000596046449,
		1.7137552499771119,
		0.044444452971220019]
	},
	{
		"min":[-1.0,
		-1.0,
		-1.0],
		"bufferView":9,
		"type":"VEC3",
		"componentType":5126,
		"count":36,
		"byteOffset":12,
		"max":[1.0,
		1.0,
		1.0]
	},
	{
		"min":[0.0,
		0.0],
		"bufferView":9,
		"type":"VEC2",
		"componentType":5126,
		"count":36,
		"byteOffset":24,
		"max":[1.0,
		1.0]
	},
	{
		"min":[0],
		"bufferView":10,
		"type":"SCALAR",
		"componentType":5123,
		"count":36,
		"byteOffset":0,
		"max":[35]
	},
	{
		"min":[-0.15000000596046449,
		-1.7137552499771119,
		-0.044444452971220019],
		"bufferView":11,
		"type":"VEC3",
		"componentType":5126,
		"count":36,
		"byteOffset":0,
		"max":[0.15000000596046449,
		1.7137552499771119,
		0.044444452971220019]
	},
	{
		"min":[-1.0,
		-1.0,
		-1.0],
		"bufferView":11,
		"type":"VEC3",
		"componentType":5126,
		"count":36,
		"byteOffset":12,
		"max":[1.0,
		1.0,
		1.0]
	},
	{
		"min":[0.0,
		0.0],
		"bufferView":11,
		"type":"VEC2",
		"componentType":5126,
		"count":36,
		"byteOffset":24,
		"max":[1.0,
		1.0]
	},
	{
		"min":[0],
		"bufferView":12,
		"type":"SCALAR",
		"componentType":5123,
		"count":36,
		"byteOffset":0,
		"max":[35]
	},
	{
		"min":[-0.15000000596046449,
		-1.7137552499771119,
		-0.044444452971220019],
		"bufferView":13,
		"type":"VEC3",
		"componentType":5126,
		"count":36,
		"byteOffset":0,
		"max":[0.15000000596046449,
		1.7137552499771119,
		0.044444452971220019]
	},
	{
		"min":[-1.0,
		-1.0,
		-1.0],
		"bufferView":13,
		"type":"VEC3",
		"componentType":5126,
		"count":36,
		"byteOffset":12,
		"max":[1.0,
		1.0,
		1.0]
	},
	{
		"min":[0.0,
		0.0],
		"bufferView":13,
		"type":"VEC2",
		"componentType":5126,
		"count":36,
		"byteOffset":24,
		"max":[1.0,
		1.0]
	},
	{
		"min":[0],
		"bufferView":14,
		"type":"SCALAR",
		"componentType":5123,
		"count":36,
		"byteOffset":0,
		"max":[35]
	},
	{
		"min":[-0.15000000596046449,
		-1.7137552499771119,
		-0.044444452971220019],
		"bufferView":15,
		"type":"VEC3",
		"componentType":5126,
		"count":36,
		"byteOffset":0,
		"max":[0.15000000596046449,
		1.7137552499771119,
		0.044444452971220019]
	},
	{
		"min":[-1.0,
		-1.0,
		-1.0],
		"bufferView":15,
		"type":"VEC3",
		"componentType":5126,
		"count":36,
		"byteOffset":12,
		"max":[1.0,
		1.0,
		1.0]
	},
	{
		"min":[0.0,
		0.0],
		"bufferView":15,
		"type":"VEC2",
		"componentType":5126,
		"count":36,
		"byteOffset":24,
		"max":[1.0,
		1.0]
	}],
	"bufferViews":[{
		"buffer":0,
		"byteOffset":0,
		"byteLength":636,
		"target":34963
	},
	{
		"buffer":0,
		"byteOffset":636,
		"byteLength":10176,
		"target":34962,
		"byteStride":32
	},
	{
		"buffer":1,
		"byteOffset":0,
		"byteLength":72,
		"target":34963
	},
	{
		"buffer":1,
		"byteOffset":72,
		"byteLength":1152,
		"target":34962,
		"byteStride":32
	},
	{
		"buffer":2,
		"byteOffset":0,
		"byteLength":72,
		"target":34963
	},
	{
		"buffer":2,
		"byteOffset":72,
		"byteLength":1152,
		"target":34962,
		"byteStride":32
	},
	{
		"buffer":3,
		"byteOffset":0,
		"byteLength":72,
		"target":34963
	},
	{
		"buffer":3,
		"byteOffset":72,
		"byteLength":1152,
		"target":34962,
		"byteStride":32
	},
	{
		"buffer":4,
		"byteOffset":0,
		"byteLength":72,
		"target":34963
	},
	{
		"buffer":4,
		"byteOffset":72,
		"byteLength":1152,
		"target":34962,
		"byteStride":32
	},
	{
		"buffer":5,
		"byteOffset":0,
		"byteLength":72,
		"target":34963
	},
	{
		"buffer":5,
		"byteOffset":72,
		"byteLength":1152,
		"target":34962,
		"byteStride":32
	},
	{
		"buffer":6,
		"byteOffset":0,
		"byteLength":72,
		"target":34963
	},
	{
		"buffer":6,
		"byteOffset":72,
		"byteLength":1152,
		"target":34962,
		"byteStride":32
	},
	{
		"buffer":7,
		"byteOffset":0,
		"byteLength":72,
		"target":34963
	},
	{
		"buffer":7,
		"byteOffset":72,
		"byteLength":1152,
		"target":34962,
		"byteStride":32
	}],
	"buffers":[{
		"uri":"data:application/octet-stream;base64,",
		"byteLength":10812
	},
	{
		"uri":"data:application/octet-stream;base64,",
		"byteLength":1224
	},
	{
		"uri":"data:application/octet-stream;base64,",
		"byteLength":1224
	},
	{
		"uri":"data:application/octet-stream;base64,",
		"byteLength":1224
	},
	{
		"uri":"data:application/octet-stream;base64,",
		"byteLength":1224
	},
	{
		"uri":"data:application/octet-stream;base64,",
		"byteLength":1224
	},
	{
		"uri":"data:application/octet-stream;base64,",
		"byteLength":1224
	},
	{
		"uri":"data:application/octet-stream;base64,",
		"byteLength":1224
	}]
}