{
	"asset":{
		"version":"2.0",
		"generator":"Maxon Cinema 4D 2024.3.2 (#200000219)"
	},
	"scenes":[{
		"nodes":[0]
	}],
	"nodes":[{
		"translation":[-4.0848028223718178e-17,
		5.662195682525635,
		0.6670989394187927],
		"name":"Collision",
		"mesh":0,
		"rotation":[0.0,
		-1.0,
		0.0,
		-6.123234262925839e-17],
		"scale":[1.0,
		1.0,
		1.0]
	}],
	"meshes":[{
		"name":"Collision",
		"primitives":[{
			"attributes":{
				"POSITION":1,
				"NORMAL":2,
				"TEXCOORD_0":3
			},
			"indices":0
		}]
	}],
	"accessors":[{
		"min":[0],
		"bufferView":0,
		"type":"SCALAR",
		"componentType":5123,
		"count":96,
		"byteOffset":0,
		"max":[95]
	},
	{
		"min":[-1.9263317584991456,
		-6.027571678161621,
		0.39635300636291506],
		"bufferView":1,
		"type":"VEC3",
		"componentType":5126,
		"count":96,
		"byteOffset":0,
		"max":[1.9263319969177247,
		-0.5457866191864014,
		2.279482841491699]
	},
	{
		"min":[-0.9968473315238953,
		-1.0,
		-0.17459642887115479],
		"bufferView":1,
		"type":"VEC3",
		"componentType":5126,
		"count":96,
		"byteOffset":12,
		"max":[0.9968473315238953,
		0.9954743385314941,
		1.0]
	},
	{
		"min":[0.3594079613685608,
		0.545274019241333],
		"bufferView":1,
		"type":"VEC2",
		"componentType":5126,
		"count":96,
		"byteOffset":24,
		"max":[0.6405920386314392,
		1.0]
	}],
	"bufferViews":[{
		"buffer":0,
		"byteOffset":0,
		"byteLength":192,
		"target":34963
	},
	{
		"buffer":0,
		"byteOffset":192,
		"byteLength":3072,
		"target":34962,
		"byteStride":32
	}],
	"buffers":[{
		"uri":"data:application/octet-stream;base64,",
		"byteLength":3264
	}]
}