{
	"meshes":[{
		"name":"Cube",
		"primitives":[{
			"attributes":{
				"POSITION":1,
				"NORMAL":2,
				"TEXCOORD_0":3
			},
			"indices":0
		}]
	}],
	"asset":{
		"version":"2.0",
		"generator":"Maxon Cinema 4D 2024.3.2 (#200000219)"
	},
	"scenes":[{
		"nodes":[0]
	}],
	"nodes":[{
		"name":"Cube",
		"mesh":0
	}],
	"accessors":[{
		"bufferView":0,
		"type":"SCALAR",
		"componentType":5123,
		"count":4209,
		"byteOffset":0,
		"min":[0],
		"max":[4208]
	},
	{
		"bufferView":1,
		"type":"VEC3",
		"componentType":5126,
		"count":4209,
		"byteOffset":0,
		"min":[-7.810527324676514,
		-5.647743225097656,
		-14.104784965515137],
		"max":[2.1988000869750978,
		7.820976734161377,
		14.104784965515137]
	},
	{
		"bufferView":1,
		"type":"VEC3",
		"componentType":5126,
		"count":4209,
		"byteOffset":12,
		"min":[-1.0,
		-1.0,
		-1.0],
		"max":[1.0,
		1.0,
		1.0]
	},
	{
		"bufferView":1,
		"type":"VEC2",
		"componentType":5126,
		"count":4209,
		"byteOffset":24,
		"min":[0.0,
		0.0],
		"max":[1.0,
		1.0]
	}],
	"bufferViews":[{
		"buffer":0,
		"byteOffset":0,
		"byteLength":8418,
		"target":34963
	},
	{
		"buffer":0,
		"byteOffset":8420,
		"byteLength":134688,
		"byteStride":32,
		"target":34962
	}],
	"buffers":[{
		"uri":"data:application/octet-stream;base64,",
		"byteLength":143108
	}]
}