# WaveFront *.obj file (generated by Cinema 4D)

mtllib ./House_2.mtl

v -184.052765 0.000000 147.892311
v -184.052765 298.435791 147.892311
v 215.947235 0.000000 147.892311
v 215.947235 298.435791 147.892311
v 215.947235 0.000000 -252.107689
v 215.947235 298.435791 -252.107689
v -184.052765 0.000000 -252.107689
v -184.052765 298.435791 -252.107689
v 410.602386 0.000000 147.892311
v 410.602386 298.435791 147.892311
v 410.602386 0.000000 -252.107689
v 410.602386 298.435791 -252.107689
v -184.052765 482.235779 -46.707735
v 215.947235 488.835785 -44.083601
v 215.947235 488.835785 -60.131777
v -184.052765 482.235779 -57.507643
v 410.602386 482.235779 -46.707735
v 410.602386 482.235779 -57.507643
v -184.052765 303.233940 152.424171
v 215.947235 303.233940 152.424171
v 215.947235 303.233940 -256.639549
v -184.052765 303.233940 -256.639549
v 410.602386 303.233940 152.424171
v 410.602386 303.233940 -256.639549
v -184.052765 488.835785 -44.083601
v -184.052765 488.835785 -60.131777
v 410.602386 488.835785 -44.083601
v 410.602386 488.835785 -60.131777
v -184.052765 294.041260 152.545067
v 215.947235 294.041260 152.545067
v 410.602386 294.041260 152.545067
v -184.052765 298.839409 157.076927
v 215.947235 298.839409 157.076927
v 410.602386 298.839409 157.076927
v 215.947235 294.041260 -256.760445
v -184.052765 294.041260 -256.760445
v 410.602386 294.041260 -256.760445
v 215.947235 298.839409 -261.292305
v -184.052765 298.839409 -261.292305
v 410.602386 298.839409 -261.292305
v -184.052765 205.176743 147.892311
v 215.947235 205.176743 147.892311
v 215.947235 205.176743 -252.107689
v -184.052765 205.176743 -252.107689
v 410.602386 205.176743 147.892311
v 410.602386 205.176743 -252.107689
v -410.602386 0.000000 147.892311
v -410.602386 0.000000 -252.107689
v -410.602386 205.176743 147.892311
v -410.602386 205.176743 -252.107689
v -184.052765 0.000000 261.292305
v -184.052765 205.176743 261.292305
v -410.602386 0.000000 261.292305
v -410.602386 205.176743 261.292305
v -188.652771 205.176743 147.892311
v -188.652771 205.176743 -247.507683
v -406.002380 205.176743 147.892311
v -406.002380 205.176743 -247.507683
v -188.652771 205.176743 256.692299
v -406.002380 205.176743 256.692299
v -188.652771 201.576742 147.892311
v -188.652771 201.576742 -247.507683
v -406.002380 201.576742 147.892311
v -406.002380 201.576742 -247.507683
v -188.652771 201.576742 256.692299
v -406.002380 201.576742 256.692299
# 66 vertices

vn 0.000000 0.000000 1.000000
vn 1.000000 0.000000 0.000000
vn 0.000000 0.000000 -1.000000
vn -1.000000 0.000000 0.000000
vn 0.000000 1.000000 0.000000
vn 0.000000 -1.000000 0.000000
vn 0.000000 0.726993 0.686645
vn 0.000000 0.726993 -0.686645
vn 0.000000 -0.686646 0.726992
vn 0.000000 -0.686646 -0.726992
vn 0.000000 -0.726993 -0.686645
vn 0.000000 0.726993 0.686645
vn 0.000000 -0.726993 0.686645
vn 0.000000 0.726993 -0.686645
# 14 normals

o House_36
usemtl White_1
f 3//1 42//1 41//1 1//1
f 11//2 46//2 45//2 9//2
f 7//3 44//3 43//3 5//3
f 41//4 2//4 8//4 44//4
f 14//5 15//5 26//5 25//5
f 5//6 3//6 1//6 7//6
f 5//6 11//6 9//6 3//6
f 43//3 6//3 12//3 46//3
f 14//5 27//5 28//5 15//5
f 42//1 45//1 10//1 4//1
f 20//7 14//7 25//7 19//7
f 22//8 26//8 15//8 21//8
f 2//4 13//4 16//4 8//4
f 23//7 27//7 14//7 20//7
f 12//2 18//2 17//2 10//2
f 21//8 15//8 28//8 24//8
f 13//4 25//4 26//4 16//4
f 18//2 28//2 27//2 17//2
f 30//9 33//9 32//9 29//9
f 2//4 19//4 25//4 13//4
f 36//10 39//10 38//10 35//10
f 16//4 26//4 22//4 8//4
f 31//9 34//9 33//9 30//9
f 17//2 27//2 23//2 10//2
f 35//10 38//10 40//10 37//10
f 12//2 24//2 28//2 18//2
f 4//11 30//11 29//11 2//11
f 19//12 32//12 33//12 20//12
f 2//4 29//4 32//4 19//4
f 10//11 31//11 30//11 4//11
f 23//2 34//2 31//2 10//2
f 20//12 33//12 34//12 23//12
f 8//13 36//13 35//13 6//13
f 22//4 39//4 36//4 8//4
f 21//14 38//14 39//14 22//14
f 6//13 35//13 37//13 12//13
f 24//14 40//14 38//14 21//14
f 12//2 37//2 40//2 24//2
f 42//1 4//1 2//1 41//1
f 46//2 12//2 10//2 45//2
f 44//3 8//3 6//3 43//3
f 50//4 48//4 47//4 49//4
f 46//3 11//3 5//3 43//3
f 42//1 3//1 9//1 45//1
f 62//5 64//5 63//5 61//5
f 7//3 48//3 50//3 44//3
f 1//6 47//6 48//6 7//6
f 52//1 54//1 53//1 51//1
f 41//2 52//2 51//2 1//2
f 63//5 66//5 65//5 61//5
f 47//4 53//4 54//4 49//4
f 1//6 51//6 53//6 47//6
f 44//5 56//5 55//5 41//5
f 50//5 58//5 56//5 44//5
f 49//5 57//5 58//5 50//5
f 54//5 60//5 57//5 49//5
f 52//5 59//5 60//5 54//5
f 41//5 55//5 59//5 52//5
f 56//4 62//4 61//4 55//4
f 58//1 64//1 62//1 56//1
f 57//2 63//2 64//2 58//2
f 60//2 66//2 63//2 57//2
f 59//3 65//3 66//3 60//3
f 55//4 61//4 65//4 59//4

