# WaveFront *.obj file (generated by Cinema 4D)

mtllib ./House_3.mtl

v -264.978889 -2.096924 289.479744
v -264.978889 216.264038 289.479744
v 135.021126 -2.096924 289.479744
v 135.021126 216.264038 289.479744
v 135.021126 -2.096924 -110.520271
v 135.021126 216.264038 -110.520271
v -264.978889 -2.096924 -110.520271
v -264.978889 216.264038 -110.520271
v 135.021126 -2.096924 -472.520256
v 135.021126 216.264038 -472.520256
v -264.978889 -2.096924 -472.520256
v -264.978889 216.264038 -472.520256
v 399.021111 -2.096924 289.479744
v 399.021111 216.264038 289.479744
v 399.021111 -2.096924 -110.520271
v 399.021111 216.264038 -110.520271
v -73.618660 467.538177 97.694679
v -58.378860 466.924866 98.176216
v -57.119263 468.521912 82.044304
v -74.101921 466.924866 83.302864
v -58.378860 461.724854 -472.520256
v -71.578880 461.724854 -472.520256
v 399.021111 461.724854 95.656593
v 399.021111 461.724854 83.302864
v -267.931099 220.919312 292.429482
v 135.021126 219.486572 293.560799
v 137.973351 220.919312 -113.470024
v -269.063362 219.482239 -110.520271
v 139.105629 219.482239 -472.520256
v -269.063362 219.482239 -472.520256
v 399.021111 219.486572 293.560799
v 399.021111 219.486572 -114.601357
v -55.855827 466.924866 -472.520256
v -74.101921 466.924866 -472.520256
v 399.021111 466.924866 98.176216
v 399.021111 466.924866 80.783241
v -221.178902 -2.096924 245.679756
v -221.178902 216.264038 245.679756
v 135.021126 -2.096924 245.679756
v 135.021126 216.264038 245.679756
v 91.221138 -2.096924 -66.720284
v 91.221138 216.264038 -66.720284
v -221.178902 -2.096924 -110.520271
v -221.178902 216.264038 -110.520271
v 91.221138 -2.096924 -428.720268
v 91.221138 216.264038 -428.720268
v -221.178902 -2.096924 -428.720268
v -221.178902 216.264038 -428.720268
v 355.221123 -2.096924 245.679756
v 355.221123 216.264038 245.679756
v 355.221123 -2.096924 -66.720284
v 355.221123 216.264038 -66.720284
v 120.594048 223.264038 -472.520256
v -250.551796 223.264038 -472.520256
v -61.775253 454.724854 -472.520256
v -68.182487 454.724854 -472.520256
v 399.021111 223.264038 275.033119
v 399.021111 223.264038 -96.073662
v 399.021111 454.724854 92.264809
v 399.021111 454.724854 86.694649
v 120.594048 223.264038 -465.720268
v -250.551796 223.264038 -465.720268
v -61.775253 454.724854 -465.720268
v -68.182487 454.724854 -465.720268
v 392.221123 223.264038 275.033119
v 392.221123 223.264038 -96.073662
v 392.221123 454.724854 92.264809
v 392.221123 454.724854 86.694649
# 68 vertices

vn 0.000000 0.000000 1.000000
vn 1.000000 0.000000 0.000000
vn 0.000000 0.000000 -1.000000
vn -1.000000 0.000000 0.000000
vn -0.029951 0.999064 0.031222
vn 0.000000 -1.000000 0.000000
vn 0.785481 -0.618885 0.000000
vn -0.046978 0.998895 -0.001542
vn 0.000000 1.000000 0.000000
vn 0.001753 0.998782 0.049319
vn 0.000069 0.619684 0.784852
vn -0.785482 0.618885 0.000000
vn -0.785482 0.618885 0.000001
vn 0.785479 0.618888 0.000004
vn -0.785481 0.618885 0.000000
vn 0.000000 0.619720 0.784823
vn 0.000000 0.619720 -0.784823
vn -0.002169 -0.670395 0.742001
vn -0.742288 -0.670078 0.002303
vn 0.743145 -0.669127 0.002436
vn -0.618888 -0.785479 0.000000
vn 0.000000 -0.784822 0.619721
vn -0.003547 -0.669542 -0.742766
vn 0.000000 -0.619720 -0.784823
vn -0.785481 -0.618885 0.000000
vn 0.000000 -0.619720 0.784823
# 26 normals

o House_40
usemtl White_1
f 39//1 40//1 38//1 37//1
f 51//2 52//2 50//2 49//2
f 47//3 48//3 46//3 45//3
f 37//4 38//4 44//4 43//4
f 18//5 19//5 20//5 17//5
f 59//6 67//6 68//6 60//6
f 56//7 64//7 62//7 54//7
f 44//4 48//4 47//4 43//4
f 19//8 33//8 34//8 20//8
f 41//2 45//2 46//2 42//2
f 58//9 66//9 65//9 57//9
f 42//3 52//3 51//3 41//3
f 18//10 35//10 36//10 19//10
f 39//1 49//1 50//1 40//1
f 26//11 18//11 17//11 25//11
f 25//13 17//13 20//12 28//12
f 29//14 33//14 19//14 27//14
f 62//3 64//3 63//3 61//3
f 28//12 20//12 34//15 30//15
f 31//16 35//16 18//16 26//16
f 66//2 68//2 67//2 65//2
f 27//17 19//17 36//17 32//17
f 22//3 34//3 33//3 21//3
f 24//2 36//2 35//2 23//2
f 4//18 26//18 25//18 2//18
f 2//19 25//19 28//19 8//19
f 10//20 29//20 27//20 6//20
f 21//3 33//3 29//3 10//3
f 8//21 28//21 30//21 12//21
f 12//3 30//3 34//3 22//3
f 14//22 31//22 26//22 4//22
f 23//2 35//2 31//2 14//2
f 6//23 27//23 32//23 16//23
f 16//2 32//2 36//2 24//2
f 57//24 65//24 67//24 59//24
f 2//6 38//6 40//6 4//6
f 54//9 62//9 61//9 53//9
f 14//6 50//6 52//6 16//6
f 24//2 60//2 58//2 16//2
f 10//6 46//6 48//6 12//6
f 53//25 61//25 63//25 55//25
f 8//6 44//6 38//6 2//6
f 12//6 48//6 44//6 8//6
f 55//6 63//6 64//6 56//6
f 23//2 59//2 60//2 24//2
f 6//6 42//6 46//6 10//6
f 16//6 52//6 42//6 6//6
f 14//2 57//2 59//2 23//2
f 60//26 68//26 66//26 58//26
f 4//6 40//6 50//6 14//6
f 12//3 54//3 53//3 10//3
f 22//3 56//3 54//3 12//3
f 21//3 55//3 56//3 22//3
f 10//3 53//3 55//3 21//3
f 16//2 58//2 57//2 14//2

