{
	"buffers":[{
		"uri":"data:application/octet-stream;base64,",
		"byteLength":244800
	},
	{
		"uri":"data:application/octet-stream;base64,",
		"byteLength":1300296
	}],
	"asset":{
		"version":"2.0",
		"generator":"Maxon Cinema 4D 2024.3.2 (#200000219)"
	},
	"scenes":[{
		"nodes":[0]
	}],
	"nodes":[{
		"name":"Box01",
		"translation":[-0.008717353455722332,
		-0.030484436079859735,
		-0.022070402279496194],
		"rotation":[0.0,
		0.0,
		0.0,
		-1.0],
		"scale":[1.0,
		1.0,
		1.0],
		"children":[1,
		2]
	},
	{
		"name":"Box01",
		"mesh":0
	},
	{
		"name":"Box01-Default",
		"mesh":1
	}],
	"meshes":[{
		"name":"Box01",
		"primitives":[{
			"attributes":{
				"POSITION":1,
				"NORMAL":2,
				"TEXCOORD_0":3
			},
			"indices":0
		}]
	},
	{
		"name":"Box01-Default",
		"primitives":[{
			"attributes":{
				"POSITION":5,
				"NORMAL":6,
				"TEXCOORD_0":7
			},
			"indices":4,
			"material":0
		}]
	}],
	"accessors":[{
		"bufferView":0,
		"type":"SCALAR",
		"componentType":5123,
		"count":7200,
		"byteOffset":0,
		"min":[0],
		"max":[7199]
	},
	{
		"bufferView":1,
		"type":"VEC3",
		"componentType":5126,
		"count":7200,
		"byteOffset":0,
		"min":[-6.3440165519714359,
		-1.790156602859497,
		-3.052358865737915],
		"max":[6.337101936340332,
		1.3685975074768067,
		3.0013132095336916]
	},
	{
		"bufferView":1,
		"type":"VEC3",
		"componentType":5126,
		"count":7200,
		"byteOffset":12,
		"min":[-1.0,
		-0.9999942779541016,
		-0.9999942779541016],
		"max":[1.0,
		0.9999942779541016,
		0.9999942779541016]
	},
	{
		"bufferView":1,
		"type":"VEC2",
		"componentType":5126,
		"count":7200,
		"byteOffset":24,
		"min":[0.0,
		0.0],
		"max":[1.0,
		1.0]
	},
	{
		"bufferView":2,
		"type":"SCALAR",
		"componentType":5123,
		"count":38244,
		"byteOffset":0,
		"min":[0],
		"max":[38243]
	},
	{
		"bufferView":3,
		"type":"VEC3",
		"componentType":5126,
		"count":38244,
		"byteOffset":0,
		"min":[-6.218785285949707,
		-1.6901870965957642,
		-2.879141330718994],
		"max":[6.203660011291504,
		3.0574140548706056,
		3.0107312202453615]
	},
	{
		"bufferView":3,
		"type":"VEC3",
		"componentType":5126,
		"count":38244,
		"byteOffset":12,
		"min":[-0.9999703168869019,
		-0.9999998807907105,
		-1.0],
		"max":[0.9999560713768005,
		1.0,
		1.0]
	},
	{
		"bufferView":3,
		"type":"VEC2",
		"componentType":5126,
		"count":38244,
		"byteOffset":24,
		"min":[0.0,
		0.0],
		"max":[0.0,
		0.0]
	}],
	"bufferViews":[{
		"buffer":0,
		"byteOffset":0,
		"byteLength":14400,
		"target":34963
	},
	{
		"buffer":0,
		"byteOffset":14400,
		"byteLength":230400,
		"byteStride":32,
		"target":34962
	},
	{
		"buffer":1,
		"byteOffset":0,
		"byteLength":76488,
		"target":34963
	},
	{
		"buffer":1,
		"byteOffset":76488,
		"byteLength":1223808,
		"byteStride":32,
		"target":34962
	}],
	"materials":[{
		"emissiveFactor":[0.0,
		0.0,
		0.0],
		"pbrMetallicRoughness":{
			"baseColorFactor":[0.7529411764705875,
			0.7529411764705877,
			0.7529411764705879,
			1.0],
			"metallicFactor":0.0,
			"roughnessFactor":1.0
		},
		"alphaMode":"OPAQUE",
		"doubleSided":false,
		"name":"Default"
	}]
}