{
	"asset":{
		"version":"2.0",
		"generator":"Maxon Cinema 4D 2024.1.0 (#200000219)"
	},
	"scenes":[{
		"nodes":[0]
	}],
	"nodes":[{
		"translation":[-2.827420234680176,
		-0.15974800288677216,
		0.0],
		"name":"Researchers shed",
		"mesh":0,
		"rotation":[0.0,
		0.0,
		0.0,
		-1.0],
		"scale":[1.0,
		1.0,
		1.0]
	}],
	"buffers":[{
		"uri":"data:application/octet-stream;base64,",
		"byteLength":314496
	}],
	"meshes":[{
		"name":"Researchers shed",
		"primitives":[{
			"attributes":{
				"POSITION":1,
				"NORMAL":2
			},
			"indices":0
		}]
	}],
	"accessors":[{
		"bufferView":0,
		"type":"SCALAR",
		"componentType":5123,
		"count":12096,
		"byteOffset":0,
		"min":[0],
		"max":[12095]
	},
	{
		"bufferView":1,
		"type":"VEC3",
		"componentType":5126,
		"count":12096,
		"byteOffset":0,
		"min":[-6.81737756729126,
		-1.1592762470245362,
		-9.525239944458008],
		"max":[9.865301132202149,
		6.3151116371154789,
		9.525239944458008]
	},
	{
		"bufferView":1,
		"type":"VEC3",
		"componentType":5126,
		"count":12096,
		"byteOffset":12,
		"min":[-1.0,
		-1.0,
		-1.0],
		"max":[1.0,
		1.0,
		1.0]
	}],
	"bufferViews":[{
		"buffer":0,
		"byteOffset":0,
		"byteLength":24192,
		"target":34963
	},
	{
		"buffer":0,
		"byteOffset":24192,
		"byteLength":290304,
		"target":34962,
		"byteStride":24
	}]
}