# WaveFront *.obj file (generated by Cinema 4D)

mtllib ./Survivors_Tent_1_Collision.mtl

v 0.018849 3.696522 1.995353
v 0.073823 3.706662 -1.913495
v 2.421091 1.306378 -1.967478
v 2.489448 -0.246616 -1.974651
v 2.443106 -0.009615 2.056581
v 2.292404 1.283979 2.063505
v -2.399311 1.181549 1.951100
v -2.344337 1.191689 -1.957749
v -2.678480 -0.036047 1.943365
v -2.623506 -0.025907 -1.965484
# 10 vertices

vn 0.911926 0.409866 0.020035
vn 0.721319 0.692333 0.019361
vn 0.996641 0.079806 0.018383
vn -0.720747 0.693148 -0.008338
vn -0.879591 0.475601 -0.011137
vn -0.974606 0.223541 -0.013127
vn -0.002175 0.012815 -0.999916
vn -0.001827 0.005611 -0.999983
vn -0.002523 0.020018 -0.999796
vn -0.022996 -0.004392 0.999726
vn -0.023534 0.000581 0.999723
vn -0.024072 0.005555 0.999695
# 12 normals

o Collision
usemtl default
f 6//1 5//3 4//3 3//1 2//2 1//2
f 2//4 8//5 7//5 1//4
f 8//5 10//6 9//6 7//5
f 3//7 4//8 10//8 8//7
f 3//7 8//7 2//9
f 5//10 6//11 7//11 9//10
f 7//11 6//11 1//12

