{
	"asset":{
		"version":"2.0",
		"generator":"Sketchfab-12.66.0",
		"copyright":""
	},
	"scenes":[{
		"nodes":[0]
	}],
	"nodes":[{
		"name":"coffin___graves:Torch_low_coffin___graves:StingrayPBS1_0",
		"mesh":0
	}],
	"meshes":[{
		"name":"coffin___graves:Torch_low_coffin___graves:StingrayPBS1_0",
		"primitives":[{
			"material":0,
			"attributes":{
				"POSITION":1,
				"NORMAL":2,
				"TEXCOORD_0":3
			},
			"indices":0
		}]
	}],
	"accessors":[{
		"bufferView":0,
		"type":"SCALAR",
		"componentType":5123,
		"count":4476,
		"byteOffset":0,
		"min":[0],
		"max":[4475]
	},
	{
		"bufferView":1,
		"type":"VEC3",
		"componentType":5126,
		"count":4476,
		"byteOffset":0,
		"min":[-0.14810486137866975,
		-0.5684622526168823,
		-0.2767495810985565],
		"max":[0.14810486137866975,
		0.5684622526168823,
		0.2767495810985565]
	},
	{
		"bufferView":1,
		"type":"VEC3",
		"componentType":5126,
		"count":4476,
		"byteOffset":12,
		"min":[-1.0,
		-1.0,
		-1.0],
		"max":[1.0,
		1.0,
		1.0]
	},
	{
		"bufferView":1,
		"type":"VEC2",
		"componentType":5126,
		"count":4476,
		"byteOffset":24,
		"min":[0.002440929412841797,
		0.0024408698081970217],
		"max":[0.99658203125,
		0.99755859375]
	}],
	"bufferViews":[{
		"buffer":0,
		"byteOffset":0,
		"byteLength":8952,
		"target":34963
	},
	{
		"buffer":0,
		"byteOffset":8952,
		"byteLength":143232,
		"target":34962,
		"byteStride":32
	}],
	"buffers":[{
		"uri":"data:application/octet-stream;base64,",
		"byteLength":152184
	}],
	"images":[{
		"uri":"data:image/png;base64,"
	},
	{
		"uri":"data:image/png;base64,"
	}],
	"samplers":[{
		"magFilter":9729,
		"minFilter":9729,
		"wrapS":10497,
		"wrapT":10497
	},
	{
		"magFilter":9729,
		"minFilter":9729,
		"wrapS":10497,
		"wrapT":10497
	}],
	"textures":[{
		"sampler":0,
		"source":0
	},
	{
		"sampler":1,
		"source":1
	}],
	"materials":[{
		"pbrMetallicRoughness":{
			"baseColorTexture":{
				"index":0
			},
			"baseColorFactor":[1.0,
			1.0,
			1.0,
			1.0],
			"metallicFactor":0.0,
			"roughnessFactor":0.4
		},
		"normalTexture":{
			"index":1,
			"scale":1.0
		},
		"alphaMode":"OPAQUE",
		"emissiveFactor":[0.0,
		0.0,
		0.0],
		"doubleSided":false,
		"name":"coffin___gravesStingrayPBS1"
	}]
}