{
	"asset":{
		"version":"2.0",
		"generator":"Sketchfab-12.65.0",
		"copyright":""
	},
	"scenes":[{
		"nodes":[0]
	}],
	"nodes":[{
		"children":[1,
		2,
		3,
		4,
		5],
		"name":"pCube3_lambert4_0"
	},
	{
		"name":"pCube3_lambert4_0-lambert8",
		"mesh":0
	},
	{
		"name":"pCube3_lambert4_0-lambert4",
		"mesh":1
	},
	{
		"name":"pCube3_lambert4_0-lambert6",
		"mesh":2
	},
	{
		"name":"pCube3_lambert4_0-lambert5",
		"mesh":3
	},
	{
		"name":"pCube3_lambert4_0-lambert4",
		"mesh":4
	}],
	"meshes":[{
		"name":"pCube3_lambert4_0-lambert8",
		"primitives":[{
			"material":0,
			"attributes":{
				"POSITION":1,
				"NORMAL":2,
				"TEXCOORD_0":3
			},
			"indices":0
		}]
	},
	{
		"name":"pCube3_lambert4_0-lambert4",
		"primitives":[{
			"material":1,
			"attributes":{
				"POSITION":5,
				"NORMAL":6,
				"TEXCOORD_0":7
			},
			"indices":4
		}]
	},
	{
		"name":"pCube3_lambert4_0-lambert6",
		"primitives":[{
			"material":2,
			"attributes":{
				"POSITION":9,
				"NORMAL":10,
				"TEXCOORD_0":11
			},
			"indices":8
		}]
	},
	{
		"name":"pCube3_lambert4_0-lambert5",
		"primitives":[{
			"material":3,
			"attributes":{
				"POSITION":13,
				"NORMAL":14,
				"TEXCOORD_0":15
			},
			"indices":12
		}]
	},
	{
		"name":"pCube3_lambert4_0-lambert4",
		"primitives":[{
			"material":1,
			"attributes":{
				"POSITION":17,
				"NORMAL":18,
				"TEXCOORD_0":19
			},
			"indices":16
		}]
	}],
	"accessors":[{
		"bufferView":0,
		"type":"SCALAR",
		"componentType":5123,
		"count":12,
		"byteOffset":0,
		"min":[0],
		"max":[11]
	},
	{
		"bufferView":1,
		"type":"VEC3",
		"componentType":5126,
		"count":12,
		"byteOffset":0,
		"min":[-0.14614690840244294,
		0.34634703397750857,
		-1.10036039352417],
		"max":[0.14628304541110993,
		1.8940985202789307,
		1.1049673557281495]
	},
	{
		"bufferView":1,
		"type":"VEC3",
		"componentType":5126,
		"count":12,
		"byteOffset":12,
		"min":[-0.9832276701927185,
		-0.18238244950771333,
		0.0],
		"max":[0.9832276701927185,
		0.18238244950771333,
		0.0]
	},
	{
		"bufferView":1,
		"type":"VEC2",
		"componentType":5126,
		"count":12,
		"byteOffset":24,
		"min":[0.5879364013671875,
		0.019073486328125],
		"max":[0.9331207275390625,
		0.9980010986328125]
	},
	{
		"bufferView":2,
		"type":"SCALAR",
		"componentType":5123,
		"count":120,
		"byteOffset":0,
		"min":[0],
		"max":[119]
	},
	{
		"bufferView":3,
		"type":"VEC3",
		"componentType":5126,
		"count":120,
		"byteOffset":0,
		"min":[-0.18737618625164033,
		0.2736295461654663,
		-1.1676408052444459],
		"max":[0.18724004924297334,
		1.9682836532592774,
		1.1661051511764527]
	},
	{
		"bufferView":3,
		"type":"VEC3",
		"componentType":5126,
		"count":120,
		"byteOffset":12,
		"min":[-0.9832322001457214,
		-0.9832267165184021,
		-1.0],
		"max":[0.9832322001457214,
		0.9832267165184021,
		1.0]
	},
	{
		"bufferView":3,
		"type":"VEC2",
		"componentType":5126,
		"count":120,
		"byteOffset":24,
		"min":[0.0018624961376190186,
		0.0019919872283935549],
		"max":[0.41634368896484377,
		0.9980010986328125]
	},
	{
		"bufferView":4,
		"type":"SCALAR",
		"componentType":5123,
		"count":96,
		"byteOffset":0,
		"min":[0],
		"max":[95]
	},
	{
		"bufferView":5,
		"type":"VEC3",
		"componentType":5126,
		"count":96,
		"byteOffset":0,
		"min":[-0.18737618625164033,
		0.2736295461654663,
		-1.1676408052444459],
		"max":[0.18724004924297334,
		1.9682836532592774,
		1.1661051511764527]
	},
	{
		"bufferView":5,
		"type":"VEC3",
		"componentType":5126,
		"count":96,
		"byteOffset":12,
		"min":[-0.9832322001457214,
		-0.9832267165184021,
		-1.0],
		"max":[0.9832322001457214,
		0.9832267165184021,
		1.0]
	},
	{
		"bufferView":5,
		"type":"VEC2",
		"componentType":5126,
		"count":96,
		"byteOffset":24,
		"min":[0.0018624961376190186,
		0.0019919872283935549],
		"max":[0.41634368896484377,
		0.890106201171875]
	},
	{
		"bufferView":6,
		"type":"SCALAR",
		"componentType":5123,
		"count":960,
		"byteOffset":0,
		"min":[0],
		"max":[959]
	},
	{
		"bufferView":7,
		"type":"VEC3",
		"componentType":5126,
		"count":960,
		"byteOffset":0,
		"min":[-0.4612395167350769,
		-1.0231810808181763,
		-1.329757571220398],
		"max":[0.4635649621486664,
		-0.8623193502426148,
		1.3482948541641236]
	},
	{
		"bufferView":7,
		"type":"VEC3",
		"componentType":5126,
		"count":960,
		"byteOffset":12,
		"min":[-0.8849467039108276,
		-1.0,
		-0.8849921822547913],
		"max":[0.8849467039108276,
		1.0,
		0.8849921822547913]
	},
	{
		"bufferView":7,
		"type":"VEC2",
		"componentType":5126,
		"count":960,
		"byteOffset":24,
		"min":[0.34374237060546877,
		-0.00003814697265625],
		"max":[0.65625,
		1.0]
	},
	{
		"bufferView":8,
		"type":"SCALAR",
		"componentType":5123,
		"count":696,
		"byteOffset":0,
		"min":[0],
		"max":[695]
	},
	{
		"bufferView":9,
		"type":"VEC3",
		"componentType":5126,
		"count":696,
		"byteOffset":0,
		"min":[-0.4093514382839203,
		-0.8660959601402283,
		-1.3090780973434449],
		"max":[0.4093514382839203,
		1.0592846870422364,
		1.325766682624817]
	},
	{
		"bufferView":9,
		"type":"VEC3",
		"componentType":5126,
		"count":696,
		"byteOffset":12,
		"min":[-1.0,
		-1.0,
		-1.0],
		"max":[1.0,
		1.0,
		1.0]
	},
	{
		"bufferView":9,
		"type":"VEC2",
		"componentType":5126,
		"count":696,
		"byteOffset":24,
		"min":[0.125,
		-0.00003814697265625],
		"max":[0.875,
		1.0]
	}],
	"bufferViews":[{
		"buffer":0,
		"byteOffset":0,
		"byteLength":24,
		"target":34963
	},
	{
		"buffer":0,
		"byteOffset":24,
		"byteLength":384,
		"target":34962,
		"byteStride":32
	},
	{
		"buffer":1,
		"byteOffset":0,
		"byteLength":240,
		"target":34963
	},
	{
		"buffer":1,
		"byteOffset":240,
		"byteLength":3840,
		"target":34962,
		"byteStride":32
	},
	{
		"buffer":2,
		"byteOffset":0,
		"byteLength":192,
		"target":34963
	},
	{
		"buffer":2,
		"byteOffset":192,
		"byteLength":3072,
		"target":34962,
		"byteStride":32
	},
	{
		"buffer":3,
		"byteOffset":0,
		"byteLength":1920,
		"target":34963
	},
	{
		"buffer":3,
		"byteOffset":1920,
		"byteLength":30720,
		"target":34962,
		"byteStride":32
	},
	{
		"buffer":4,
		"byteOffset":0,
		"byteLength":1392,
		"target":34963
	},
	{
		"buffer":4,
		"byteOffset":1392,
		"byteLength":22272,
		"target":34962,
		"byteStride":32
	}],
	"buffers":[{
		"uri":"data:application/octet-stream;base64,",
		"byteLength":408
	},
	{
		"uri":"data:application/octet-stream;base64,",
		"byteLength":4080
	},
	{
		"uri":"data:application/octet-stream;base64,",
		"byteLength":3264
	},
	{
		"uri":"data:application/octet-stream;base64,",
		"byteLength":32640
	},
	{
		"uri":"data:application/octet-stream;base64,",
		"byteLength":23664
	}],
	"images":[{
		"uri":"data:image/png;base64,"
	}],
	"samplers":[{
		"magFilter":9729,
		"minFilter":9729,
		"wrapS":10497,
		"wrapT":10497
	}],
	"textures":[{
		"sampler":0,
		"source":0
	}],
	"materials":[{
		"pbrMetallicRoughness":{
			"baseColorTexture":{
				"index":0
			},
			"baseColorFactor":[1.0,
			1.0,
			1.0,
			1.0],
			"metallicFactor":0.0,
			"roughnessFactor":0.6
		},
		"alphaMode":"OPAQUE",
		"emissiveFactor":[0.0,
		0.0,
		0.0],
		"doubleSided":false,
		"name":"lambert8"
	},
	{
		"pbrMetallicRoughness":{
			"baseColorFactor":[0.272139304462963,
			0.272139304462963,
			0.272139304462963,
			1.0],
			"metallicFactor":0.0,
			"roughnessFactor":0.6
		},
		"alphaMode":"OPAQUE",
		"emissiveFactor":[0.0,
		0.0,
		0.0],
		"doubleSided":false,
		"name":"lambert4"
	},
	{
		"pbrMetallicRoughness":{
			"baseColorFactor":[0.121,
			0.121,
			0.121,
			1.0],
			"metallicFactor":0.0,
			"roughnessFactor":0.6
		},
		"alphaMode":"OPAQUE",
		"emissiveFactor":[0.0,
		0.0,
		0.0],
		"doubleSided":false,
		"name":"lambert6"
	},
	{
		"pbrMetallicRoughness":{
			"baseColorFactor":[0.02,
			0.02,
			0.02,
			1.0],
			"metallicFactor":0.0,
			"roughnessFactor":0.6
		},
		"alphaMode":"OPAQUE",
		"emissiveFactor":[0.0,
		0.0,
		0.0],
		"doubleSided":false,
		"name":"lambert5"
	}]
}